<?xml version="1.0" standalone="no"?>
<!DOCTYPE svg PUBLIC "-//W3C//DTD SVG 20010904//EN"
 "http://www.w3.org/TR/2001/REC-SVG-20010904/DTD/svg10.dtd">
<svg version="1.0" xmlns="http://www.w3.org/2000/svg"
 width="260.000000pt" height="260.000000pt" viewBox="0 0 260.000000 260.000000"
 preserveAspectRatio="xMidYMid meet">
<metadata>
Created by potrace 1.14, written by Peter Selinger 2001-2017
</metadata>
<g transform="translate(0.000000,260.000000) scale(0.100000,-0.100000)"
fill="#000000" stroke="none">
<path d="M5 2588 c-3 -7 -4 -591 -3 -1298 l3 -1285 1292 -3 1293 -2 5 22 c3
13 4 597 3 1298 l-3 1275 -1293 3 c-1029 2 -1294 0 -1297 -10z m2555 -1288 l0
-1260 -1260 0 -1260 0 0 1260 0 1260 1260 0 1260 0 0 -1260z"/>
<path d="M782 2339 c-65 -26 -150 -106 -185 -175 -38 -75 -57 -162 -57 -260 0
-120 21 -209 72 -313 24 -47 44 -89 46 -93 2 -5 -14 -8 -36 -8 -156 0 -323
-90 -382 -207 -37 -71 -36 -180 2 -243 54 -93 141 -149 271 -176 124 -27 251
-5 361 61 42 25 56 30 51 17 -45 -105 -57 -231 -32 -329 34 -132 122 -250 215
-290 55 -24 148 -21 204 6 89 43 164 150 189 270 11 55 7 216 -6 260 -7 21 -6
22 12 13 10 -6 57 -18 103 -28 105 -21 246 -15 341 15 127 40 241 132 290 234
37 80 44 140 25 218 -38 148 -157 261 -341 325 -72 25 -93 28 -210 27 -92 0
-145 -5 -180 -16 -27 -9 -51 -15 -53 -13 -1 2 94 81 213 175 207 164 228 186
207 217 -4 8 -96 -70 -249 -211 -208 -191 -260 -235 -278 -235 -1 0 2 20 7 44
5 24 72 165 149 313 77 147 141 273 142 278 1 6 -8 10 -21 10 -20 0 -31 -17
-78 -125 -30 -69 -83 -188 -117 -265 l-62 -140 -7 100 c-15 226 -135 428 -310
521 -65 34 -82 38 -158 41 -68 3 -96 -1 -138 -18z"/>
</g>
</svg>
